<svg width="608" height="264" viewBox="0 0 608 264" fill="none" xmlns="http://www.w3.org/2000/svg">
<g opacity="0.8">
<path d="M111.612 36.0913C111.612 39.4283 108.907 42.1334 105.57 42.1334C102.233 42.1334 99.528 39.4283 99.528 36.0913C99.528 32.7544 102.233 30.0493 105.57 30.0493C108.907 30.0493 111.612 32.7544 111.612 36.0913Z" fill="#2B1105"/>
<path d="M102.313 62.6861C91.3225 62.6861 82.4128 53.7768 82.4128 42.7861V33.2339C93.4035 33.2339 102.314 42.1436 102.314 53.1343L102.313 62.6861Z" fill="#2B1105"/>
<path d="M124.204 39.6016C113.213 39.6016 104.303 48.5112 104.303 59.5019V69.0541C115.294 69.0541 124.204 60.1442 124.204 49.1537V39.6016Z" fill="#2B1105"/>
<path d="M161.001 35.9868V59.9465H156.195V44.3623L149.776 59.9465H146.138L139.685 44.3623V59.9465H134.879V35.9868H140.337L147.957 53.8019L155.577 35.9868H161.001Z" fill="#2B1105"/>
<path d="M166.816 38.6641C165.97 38.6641 165.26 38.4009 164.688 37.8746C164.139 37.3254 163.864 36.6503 163.864 35.8494C163.864 35.0485 164.139 34.3848 164.688 33.8585C165.26 33.3093 165.97 33.0347 166.816 33.0347C167.663 33.0347 168.361 33.3093 168.91 33.8585C169.482 34.3848 169.768 35.0485 169.768 35.8494C169.768 36.6503 169.482 37.3254 168.91 37.8746C168.361 38.4009 167.663 38.6641 166.816 38.6641ZM169.184 40.9296V59.9463H164.379V40.9296H169.184Z" fill="#2B1105"/>
<path d="M183.097 40.6548C185.363 40.6548 187.193 41.3756 188.59 42.8173C189.986 44.2361 190.684 46.227 190.684 48.79V59.9461H185.878V49.4422C185.878 47.9319 185.5 46.7762 184.745 45.9753C183.99 45.1515 182.96 44.7396 181.656 44.7396C180.328 44.7396 179.276 45.1515 178.498 45.9753C177.743 46.7762 177.365 47.9319 177.365 49.4422V59.9461H172.559V40.9294H177.365V43.2979C178.006 42.4741 178.818 41.8333 179.802 41.3756C180.809 40.8951 181.907 40.6548 183.097 40.6548Z" fill="#2B1105"/>
<path d="M199.475 44.8771V54.0764C199.475 54.7172 199.624 55.1863 199.922 55.4838C200.242 55.7584 200.768 55.8957 201.501 55.8957H203.732V59.9464H200.711C196.661 59.9464 194.635 57.9781 194.635 54.0421V44.8771H191.069V40.9297H194.635V36.2271H199.475V40.9297V44.8771Z" fill="#2B1105"/>
<path d="M221.749 40.9297L209.976 68.9392H204.861L208.98 59.4656L201.359 40.9297H206.749L211.657 54.2137L216.635 40.9297H221.749Z" fill="#2B1105"/>
<path d="M78.9402 193.116C80.6378 193.889 82.2404 195.502 83.1017 198.019C85.4207 204.796 92.8313 209.413 99.2531 205.904C101.797 204.514 106.187 206.017 107.841 210.851C110.16 217.628 117.571 222.245 123.993 218.736C124.649 218.378 125.427 218.212 126.25 218.245V223.066C123.779 222.284 121.089 222.402 118.552 223.788C116.008 225.179 111.618 223.676 109.964 218.842C107.645 212.065 100.234 207.447 93.8123 210.956C91.2679 212.347 86.8783 210.844 85.224 206.009C84.0979 202.719 81.7712 199.937 78.9402 198.348V193.116Z" fill="#2B1105"/>
<path d="M83.4605 189.724C85.5459 191.356 87.2188 193.665 88.1209 196.301C89.7754 201.136 94.165 202.639 96.7093 201.249C103.131 197.74 110.542 202.357 112.86 209.133C114.515 213.968 118.904 215.471 121.449 214.081C123.02 213.222 124.65 212.85 126.25 212.877V189.724H83.4605Z" fill="#2B1105"/>
<path d="M78.9402 205.25V210.36C80.3858 211.842 81.5377 213.679 82.2326 215.709C83.887 220.544 88.2766 222.047 90.8209 220.657C97.2428 217.147 104.653 221.765 106.972 228.542C108.627 233.376 113.016 234.879 115.561 233.489C119.171 231.516 123.094 232.112 126.25 234.216V228.875C124.485 227.791 122.507 227.673 121.096 228.443C114.674 231.953 107.263 227.335 104.944 220.559C103.29 215.724 98.9004 214.221 96.3561 215.612C89.9342 219.121 82.5236 214.503 80.2046 207.727C79.878 206.772 79.4448 205.948 78.9402 205.25Z" fill="#2B1105"/>
<path d="M106.872 237.034C104.667 235.394 102.892 233.004 101.953 230.259C100.299 225.425 95.9091 223.922 93.3647 225.312C88.107 228.185 82.1866 225.611 78.9402 220.864V237.034H106.872Z" fill="#2B1105"/>
<path fill-rule="evenodd" clip-rule="evenodd" d="M146.468 199.804C148.888 199.804 151.001 200.158 152.808 200.867C154.616 201.575 156.119 202.552 157.316 203.798C158.512 205.02 159.405 206.424 159.99 208.012C160.602 209.576 160.907 211.2 160.907 212.886V213.692C160.907 215.305 160.602 216.893 159.99 218.457C159.405 220.02 158.512 221.437 157.316 222.708C156.119 223.978 154.616 224.992 152.808 225.749C151.001 226.507 148.888 226.885 146.468 226.885H136.794V199.804H146.468ZM146.798 222.048H141.998V204.641H146.798C148.191 204.641 149.425 204.836 150.5 205.227C151.599 205.618 152.527 206.192 153.285 206.95C154.042 207.707 154.616 208.623 155.007 209.698C155.422 210.749 155.63 211.946 155.63 213.289C155.63 214.584 155.422 215.769 155.007 216.844C154.616 217.894 154.042 218.81 153.285 219.592C152.527 220.374 151.599 220.985 150.5 221.425C149.425 221.84 148.191 222.048 146.798 222.048Z" fill="#2B1105"/>
<path d="M164.761 225.09C166.031 226.604 167.815 227.362 170.111 227.362H170.331C171.87 227.362 173.153 227.02 174.179 226.335C175.205 225.651 175.974 224.638 176.487 223.294C176.629 222.923 176.751 222.526 176.854 222.104V226.738H180.885V206.803H175.791V218.567C175.791 219.862 175.413 220.888 174.655 221.645C173.922 222.402 172.969 222.781 171.796 222.781C170.624 222.781 169.695 222.427 169.011 221.718C168.327 220.985 167.986 220.008 167.986 218.786V206.803H162.892V218.346C162.892 221.327 163.515 223.575 164.761 225.09Z" fill="#2B1105"/>
<path d="M184.903 226.738V206.84H188.935V211.744C189.053 211.234 189.199 210.759 189.375 210.321C189.912 208.953 190.706 207.927 191.756 207.243C192.832 206.559 194.163 206.217 195.751 206.217H195.971C198.341 206.217 200.136 206.986 201.358 208.526C202.579 210.04 203.19 212.312 203.19 215.342V226.738H198.097V214.902C198.097 213.68 197.742 212.691 197.034 211.934C196.35 211.176 195.397 210.798 194.175 210.798C192.929 210.798 191.915 211.188 191.134 211.97C190.376 212.728 189.998 213.754 189.998 215.049V226.738H184.903Z" fill="#2B1105"/>
<path fill-rule="evenodd" clip-rule="evenodd" d="M211.231 226.556C212.527 227.142 214.029 227.435 215.739 227.435C217.376 227.435 218.83 227.154 220.1 226.592C221.395 226.03 222.457 225.236 223.288 224.21C224.119 223.184 224.681 221.987 224.974 220.619H220.283C220.063 221.352 219.562 221.975 218.781 222.488C217.999 222.976 216.985 223.221 215.739 223.221C214.493 223.221 213.467 222.952 212.661 222.414C211.855 221.853 211.256 221.095 210.865 220.142C210.605 219.493 210.432 218.785 210.344 218.017H225.304V216.185C225.304 214.426 224.937 212.789 224.204 211.274C223.472 209.735 222.372 208.501 220.906 207.573C219.465 206.62 217.669 206.144 215.519 206.144C213.882 206.144 212.441 206.437 211.195 207.023C209.949 207.585 208.899 208.355 208.044 209.332C207.213 210.285 206.578 211.384 206.138 212.63C205.723 213.851 205.515 215.122 205.515 216.441V217.138C205.515 218.408 205.723 219.654 206.138 220.875C206.578 222.097 207.213 223.209 208.044 224.21C208.899 225.187 209.961 225.969 211.231 226.556ZM210.432 214.902C210.529 214.342 210.674 213.829 210.865 213.363C211.09 212.834 211.368 212.374 211.7 211.981C211.981 211.647 212.302 211.363 212.661 211.127C213.442 210.615 214.395 210.358 215.519 210.358C216.643 210.358 217.571 210.602 218.304 211.091C219.062 211.579 219.624 212.276 219.99 213.18C220.082 213.407 220.163 213.647 220.232 213.898C220.266 214.019 220.296 214.143 220.324 214.27C220.369 214.474 220.407 214.684 220.438 214.902H210.432Z" fill="#2B1105"/>
<path d="M382.508 46.339V41.2817H407.952V46.339H398.131V76.2736H392.431V46.339H382.508Z" fill="#2B1105"/>
<path d="M423.537 71.6764L424.963 71.5232L425.064 75.661C421.197 76.4443 417.77 76.8357 414.785 76.8357C411.019 76.8357 408.305 75.797 406.643 73.7198C405.014 71.6423 404.2 68.3219 404.2 63.7586C404.2 54.6998 407.881 50.1704 415.243 50.1704C422.367 50.1704 425.929 54.0697 425.929 61.8683L425.573 65.8529H409.798C409.832 67.9642 410.289 69.5139 411.172 70.5013C412.054 71.4891 413.699 71.9828 416.108 71.9828C418.517 71.9828 420.993 71.8806 423.537 71.6764ZM420.484 61.5619C420.484 59.042 420.077 57.2881 419.263 56.3004C418.483 55.2787 417.143 54.7679 415.243 54.7679C413.343 54.7679 411.952 55.2957 411.07 56.3515C410.222 57.4073 409.781 59.1439 409.747 61.5619H420.484Z" fill="#2B1105"/>
<path d="M428.719 76.2738V50.7323H434.215V53.7973C437.098 51.9243 439.982 50.7153 442.866 50.1704V55.7385C439.948 56.3174 437.454 57.0667 435.385 57.986L434.266 58.446V76.2738H428.719Z" fill="#2B1105"/>
<path d="M444.561 76.2738V50.7323H450.058V53.7973C452.941 51.9243 455.825 50.7153 458.709 50.1704V55.7385C455.791 56.3174 453.297 57.0667 451.228 57.986L450.108 58.446V76.2738H444.561Z" fill="#2B1105"/>
<path d="M479.233 58.5992V70.2462C479.267 70.9954 479.454 71.5573 479.793 71.9319C480.166 72.2724 480.726 72.4938 481.472 72.5957L481.32 76.8357C478.402 76.8357 476.146 76.2057 474.551 74.9455C471.837 76.2057 469.106 76.8357 466.358 76.8357C461.304 76.8357 458.776 74.1285 458.776 68.7137C458.776 66.1253 459.454 64.2523 460.812 63.0944C462.202 61.9365 464.323 61.2383 467.172 61L473.737 60.4381V58.5992C473.737 57.2368 473.432 56.2834 472.821 55.7385C472.244 55.1936 471.379 54.9211 470.226 54.9211C468.055 54.9211 465.341 55.0574 462.083 55.3298L460.455 55.432L460.252 51.4986C463.95 50.6131 467.342 50.1704 470.429 50.1704C473.551 50.1704 475.79 50.8515 477.147 52.2137C478.538 53.5419 479.233 55.6704 479.233 58.5992ZM467.834 64.9333C465.493 65.1378 464.323 66.4148 464.323 68.7647C464.323 71.1145 465.357 72.2893 467.427 72.2893C469.123 72.2893 470.921 72.0169 472.821 71.4719L473.737 71.1655V64.3714L467.834 64.9333Z" fill="#2B1105"/>
<path fill-rule="evenodd" clip-rule="evenodd" d="M367.114 38.3496C371.542 38.3496 375.236 41.4906 376.091 45.6662C376.213 46.2627 376.277 46.8804 376.277 47.513V70.9711C376.277 76.0319 372.174 80.1345 367.114 80.1345H343.655C342.653 80.1345 341.689 79.9736 340.787 79.6767C337.131 78.4726 334.492 75.0301 334.492 70.9711V47.513C334.492 42.4522 338.595 38.3496 343.655 38.3496H367.114ZM363.397 41.2819H367.114C370.15 41.2819 372.68 43.4543 373.232 46.3299C371.469 46.5297 369.453 46.3445 367.324 45.4323C365.438 44.6238 364.187 43.1259 363.397 41.2819ZM354.696 41.2819H360.266C361.191 44.0674 362.964 46.7537 366.169 48.1274C368.741 49.2294 371.182 49.485 373.345 49.2703V52.2664C370.409 53.1957 367.484 53.5718 365.143 52.8867C363.98 52.5465 362.646 51.643 361.21 50.2217C359.795 48.8199 358.382 47.017 357.047 45.0462C356.218 43.8215 355.429 42.5457 354.696 41.2819ZM351.329 41.2819H347.449C347.626 44.6 346.844 48.6529 343.935 52.7588C342.009 55.479 339.73 56.975 337.424 57.6432V63.4891C338.814 62.6453 340.449 61.4929 342.364 59.937C346.889 56.2605 350.453 54.7977 353.156 54.5301C355.842 54.2641 357.752 55.1961 358.593 56.374C359.477 57.6106 359.976 59.2677 360.164 61.0153C360.354 62.7842 360.238 64.7573 359.792 66.7153C358.905 70.6079 356.654 74.6596 352.598 76.8437C352.377 76.9629 352.154 77.0823 351.929 77.2022H356.487C358.269 74.9392 359.696 72.6909 360.208 70.929C360.785 68.9398 361.022 66.8311 361.243 64.8599L361.244 64.8595V64.8588C361.323 64.151 361.401 63.4605 361.492 62.7996C361.649 61.6546 361.866 60.4413 362.332 59.5664C362.578 59.1035 362.97 58.5881 363.601 58.2905C364.264 57.9771 364.955 58.0156 365.561 58.2176C367.26 58.7839 369.518 58.9012 373.345 57.9423V55.3269C370.393 56.1585 367.175 56.5369 364.319 55.701C362.476 55.1615 360.727 53.8689 359.148 52.3055C357.549 50.7228 356.016 48.7527 354.619 46.6901C353.425 44.9257 352.313 43.0676 351.329 41.2819ZM373.345 60.9581C369.699 61.7927 367.077 61.7579 364.859 61.0718C364.695 61.4555 364.543 62.1358 364.397 63.1984C364.324 63.7262 364.257 64.3262 364.184 64.975V64.9754C363.958 66.9972 363.678 69.4922 363.023 71.7463C362.522 73.4742 361.437 75.3725 360.148 77.2022H363.097C363.642 75.849 364.143 74.5602 364.536 73.4771C364.959 72.313 365.224 71.4758 365.309 71.0499C365.471 70.241 365.779 69.3705 366.503 68.7536C367.255 68.1114 368.178 67.9736 369.044 68.0176C369.896 68.0612 370.895 68.2907 372.022 68.6139C372.432 68.7312 372.873 68.8654 373.345 69.0146V60.9581ZM373.249 72.063C372.484 71.8145 371.81 71.6038 371.214 71.4326C370.125 71.1199 369.394 70.9715 368.895 70.9462C368.572 70.9297 368.442 70.9697 368.404 70.9861C368.383 71.0111 368.279 71.1529 368.185 71.625C368.05 72.2987 367.709 73.3323 367.292 74.4785C366.994 75.301 366.638 76.2283 366.254 77.2022H367.114C370.183 77.2022 372.733 74.9836 373.249 72.063ZM345.602 77.2022C347.523 76.2118 349.461 75.2024 351.207 74.2619C354.299 72.5974 356.171 69.4104 356.933 66.064C357.312 64.4025 357.402 62.7556 357.249 61.3291C357.093 59.8809 356.699 58.7663 356.207 58.0783C356.133 57.9735 355.385 57.2562 353.444 57.4482C351.519 57.6388 348.485 58.7417 344.214 62.2128C341.539 64.3856 339.301 65.8741 337.424 66.8582V70.1651C337.887 69.7418 338.41 69.3881 338.892 69.0864C339.384 68.7789 339.92 68.4765 340.447 68.1811L340.578 68.1078C341.07 67.8321 341.558 67.5583 342.043 67.268C343.104 66.6325 344.058 65.9687 344.792 65.1964C346.062 63.8593 347.895 62.2637 349.618 61.1744C350.468 60.6367 351.387 60.1613 352.253 59.9432C353.066 59.7383 354.327 59.6551 355.205 60.6594C356.041 61.615 356.388 63.0481 355.779 64.9083C355.2 66.6753 353.748 68.9061 350.94 71.8076C348.026 74.819 345.111 76.3276 342.654 76.8085C342.377 76.8628 342.104 76.9038 341.837 76.9328C342.412 77.108 343.023 77.2022 343.655 77.2022H345.602ZM337.424 54.5408C338.845 53.9516 340.26 52.8743 341.543 51.0639C344.075 47.4892 344.687 44.0229 344.512 41.2819H343.655C340.214 41.2819 337.424 44.0716 337.424 47.513V54.5408ZM368.402 70.9876C368.395 70.9909 368.392 70.9931 368.392 70.9931C368.392 70.9935 368.394 70.9927 368.396 70.9909L368.398 70.9898L368.402 70.9876ZM351.185 63.6529C349.708 64.5861 348.059 66.0141 346.918 67.216C345.91 68.2764 344.688 69.1018 343.55 69.7836C343.027 70.0966 342.502 70.3905 342.016 70.6632L341.881 70.7387C341.349 71.0375 340.871 71.3076 340.446 71.573C339.531 72.1448 339.149 72.5296 339.029 72.7756C338.994 72.8463 338.99 72.8866 339.001 72.9482C339.016 73.0362 339.079 73.2389 339.33 73.5735L339.355 73.6061L339.377 73.6399C339.379 73.6417 339.412 73.6875 339.516 73.7516C339.625 73.818 339.793 73.8928 340.031 73.9514C340.51 74.0694 341.207 74.1035 342.091 73.9305C343.849 73.5867 346.249 72.438 348.833 69.7682C351.523 66.9884 352.618 65.1396 352.992 63.9963C353.215 63.3153 353.169 62.9466 353.098 62.7582C353.062 62.7648 353.02 62.774 352.969 62.7868C352.546 62.8934 351.935 63.179 351.185 63.6529ZM353.256 62.7443C353.255 62.7454 353.246 62.7454 353.231 62.7424C353.249 62.7421 353.256 62.7435 353.256 62.7443Z" fill="#2B1105"/>
<path d="M389.018 218.202L391.313 217.628V193.144L389.018 192.57V191.997H399.347C403.223 191.997 406.067 192.621 407.878 193.871C409.714 195.095 410.632 196.702 410.632 198.691C410.632 200.069 410.237 201.178 409.446 202.019C408.656 202.861 407.648 203.486 406.424 203.894C405.124 204.353 403.721 204.595 402.216 204.621V204.812C404.078 204.889 405.697 205.169 407.075 205.654C408.477 206.113 409.638 206.827 410.556 207.796C411.499 208.765 411.971 210.002 411.971 211.507C411.971 213.777 411.04 215.562 409.178 216.863C407.317 218.138 404.295 218.776 400.112 218.776H389.018V218.202ZM399.347 204.239C400.189 204.239 400.966 204.009 401.68 203.55C402.42 203.065 403.007 202.402 403.44 201.561C403.899 200.693 404.129 199.737 404.129 198.691C404.129 197.569 403.899 196.575 403.44 195.707C403.007 194.84 402.42 194.164 401.68 193.68C400.966 193.195 400.189 192.953 399.347 192.953H397.625V204.239H399.347ZM400.112 217.819C401.693 217.819 402.981 217.258 403.976 216.136C404.971 215.014 405.468 213.471 405.468 211.507C405.468 209.543 404.971 208 403.976 206.878C402.981 205.756 401.693 205.195 400.112 205.195H397.625V217.819H400.112Z" fill="#2B1105"/>
<path d="M412.724 218.202L415.02 217.628V193.144L412.724 192.57V191.997H417.698C419.993 191.997 421.141 193.144 421.141 195.44V217.628L423.436 218.202V218.776H412.724V218.202Z" fill="#2B1105"/>
<path d="M433.95 219.349C430.788 219.349 428.301 218.457 426.491 216.671C424.705 214.861 423.813 212.374 423.813 209.211C423.813 206.049 424.705 203.575 426.491 201.79C428.301 199.979 430.788 199.074 433.95 199.074C437.113 199.074 439.587 199.979 441.372 201.79C443.183 203.575 444.088 206.049 444.088 209.211C444.088 212.374 443.183 214.861 441.372 216.671C439.587 218.457 437.113 219.349 433.95 219.349ZM433.95 218.584C434.971 218.584 435.825 217.87 436.514 216.442C437.228 215.014 437.585 212.603 437.585 209.211C437.585 205.82 437.228 203.409 436.514 201.981C435.825 200.553 434.971 199.839 433.95 199.839C432.93 199.839 432.063 200.553 431.349 201.981C430.66 203.409 430.316 205.82 430.316 209.211C430.316 212.603 430.66 215.014 431.349 216.442C432.063 217.87 432.93 218.584 433.95 218.584Z" fill="#2B1105"/>
<path d="M454.239 219.349C452.658 219.349 451.242 219.005 449.993 218.316C449.381 217.985 448.883 217.628 448.501 217.245C448.093 217.806 447.647 218.24 447.162 218.546C446.932 218.699 446.677 218.839 446.397 218.967H445.44V212.463H446.971C447.302 213.534 447.787 214.529 448.424 215.447C449.776 217.411 451.459 218.393 453.474 218.393C454.545 218.393 455.349 218.138 455.884 217.628C456.445 217.092 456.726 216.327 456.726 215.332C456.726 214.491 456.343 213.789 455.578 213.228C454.839 212.642 453.665 211.928 452.059 211.086C450.681 210.397 449.559 209.785 448.692 209.25C447.851 208.689 447.124 208 446.511 207.184C445.925 206.342 445.632 205.36 445.632 204.238C445.632 202.708 446.282 201.471 447.583 200.528C448.909 199.558 450.937 199.074 453.665 199.074C455.017 199.074 456.267 199.431 457.414 200.145C457.976 200.477 458.46 200.821 458.868 201.178C459.2 200.719 459.646 200.285 460.207 199.877C460.641 199.622 460.896 199.482 460.972 199.456H461.929V205.96H460.399C460.016 204.863 459.544 203.881 458.983 203.014C457.708 201.025 456.19 200.03 454.43 200.03C453.742 200.03 453.155 200.285 452.671 200.795C452.186 201.305 451.944 201.943 451.944 202.708C451.944 203.677 452.352 204.493 453.168 205.156C453.984 205.794 455.221 206.534 456.879 207.375C458.231 208.064 459.302 208.676 460.092 209.211C460.909 209.722 461.597 210.359 462.158 211.124C462.745 211.889 463.038 212.782 463.038 213.802C463.038 217.5 460.105 219.349 454.239 219.349Z" fill="#2B1105"/>
<path d="M472.986 219.349C471.405 219.349 469.989 219.005 468.74 218.316C468.127 217.985 467.63 217.628 467.248 217.245C466.84 217.806 466.393 218.24 465.909 218.546C465.679 218.699 465.424 218.839 465.144 218.967H464.187V212.463H465.718C466.049 213.534 466.533 214.529 467.171 215.447C468.523 217.411 470.206 218.393 472.221 218.393C473.292 218.393 474.096 218.138 474.631 217.628C475.192 217.092 475.473 216.327 475.473 215.332C475.473 214.491 475.09 213.789 474.325 213.228C473.585 212.642 472.412 211.928 470.806 211.086C469.428 210.397 468.306 209.785 467.439 209.25C466.598 208.689 465.87 208 465.258 207.184C464.672 206.342 464.378 205.36 464.378 204.238C464.378 202.708 465.029 201.471 466.33 200.528C467.656 199.558 469.683 199.074 472.412 199.074C473.764 199.074 475.013 199.431 476.161 200.145C476.722 200.477 477.207 200.821 477.615 201.178C477.947 200.719 478.393 200.285 478.954 199.877C479.388 199.622 479.642 199.482 479.719 199.456H480.675V205.96H479.145C478.763 204.863 478.291 203.881 477.73 203.014C476.455 201.025 474.937 200.03 473.177 200.03C472.489 200.03 471.902 200.285 471.418 200.795C470.933 201.305 470.691 201.943 470.691 202.708C470.691 203.677 471.099 204.493 471.915 205.156C472.731 205.794 473.968 206.534 475.626 207.375C476.977 208.064 478.048 208.676 478.839 209.211C479.655 209.722 480.344 210.359 480.905 211.124C481.492 211.889 481.785 212.782 481.785 213.802C481.785 217.5 478.852 219.349 472.986 219.349Z" fill="#2B1105"/>
<path d="M492.88 219.349C489.718 219.349 487.232 218.457 485.421 216.671C483.635 214.861 482.743 212.374 482.743 209.211C482.743 206.049 483.635 203.575 485.421 201.79C487.232 199.979 489.718 199.074 492.88 199.074C496.043 199.074 498.517 199.979 500.302 201.79C502.113 203.575 503.018 206.049 503.018 209.211C503.018 212.374 502.113 214.861 500.302 216.671C498.517 218.457 496.043 219.349 492.88 219.349ZM492.88 218.584C493.901 218.584 494.755 217.87 495.444 216.442C496.158 215.014 496.515 212.603 496.515 209.211C496.515 205.82 496.158 203.409 495.444 201.981C494.755 200.553 493.901 199.839 492.88 199.839C491.861 199.839 490.993 200.553 490.279 201.981C489.59 203.409 489.246 205.82 489.246 209.211C489.246 212.603 489.59 215.014 490.279 216.442C490.993 217.87 491.861 218.584 492.88 218.584Z" fill="#2B1105"/>
<path d="M504.179 218.202L506.475 217.628V200.795L504.179 200.221V199.648H507.622C509.127 199.648 510.313 200.132 511.18 201.101C511.512 201.484 511.792 201.956 512.022 202.517C512.404 201.803 512.812 201.229 513.246 200.795C514.394 199.648 515.707 199.074 517.186 199.074C518.665 199.074 519.966 199.405 521.088 200.068C522.211 200.706 523.078 201.586 523.69 202.708C524.072 201.968 524.48 201.369 524.914 200.91C526.087 199.686 527.401 199.074 528.854 199.074C530.206 199.074 531.417 199.354 532.488 199.915C533.585 200.477 534.427 201.242 535.013 202.211C535.625 203.18 535.932 204.238 535.932 205.386V217.628L538.227 218.202V218.775H533.254C530.958 218.775 529.811 217.628 529.811 215.332V205.386C529.811 203.728 529.556 202.491 529.046 201.675C528.536 200.833 527.962 200.412 527.324 200.412C526.584 200.412 525.832 200.923 525.067 201.943C524.761 202.427 524.493 202.937 524.264 203.473V217.628L526.559 218.202V218.775H515.847V218.202L518.143 217.628V205.386C518.143 203.728 517.888 202.491 517.378 201.675C516.868 200.833 516.294 200.412 515.656 200.412C514.916 200.412 514.164 200.923 513.399 201.943C513.093 202.427 512.825 202.937 512.596 203.473V217.628L514.891 218.202V218.775H504.179V218.202Z" fill="#2B1105"/>
<path fill-rule="evenodd" clip-rule="evenodd" d="M357.879 226.08C357.633 226.129 357.377 226.145 357.117 226.125C349.104 225.517 341.519 221.091 337.197 213.606C332.876 206.12 332.835 197.338 336.315 190.094C336.821 189.043 337.916 188.41 339.079 188.499C342.066 188.725 344.992 189.482 347.713 190.73C349.766 186.727 352.803 183.313 356.505 180.806C357.471 180.151 358.735 180.151 359.701 180.806C363.352 183.279 366.357 186.635 368.408 190.567C371.025 189.416 373.825 188.715 376.679 188.499C377.843 188.41 378.938 189.043 379.443 190.094C382.924 197.338 382.883 206.12 378.561 213.606C374.24 221.091 366.655 225.517 358.641 226.125C358.382 226.145 358.126 226.129 357.879 226.08ZM363.75 221.542C368.554 219.909 372.802 216.594 375.536 211.859C379.174 205.557 379.293 198.187 376.488 192.021C374.185 192.245 371.931 192.834 369.816 193.764C370.847 196.602 371.41 199.664 371.41 202.859C371.41 210.14 368.487 216.737 363.75 221.542ZM365.315 192.191C363.602 188.902 361.119 186.074 358.103 183.947C355.022 186.12 352.497 189.023 350.781 192.403C353.513 194.151 355.94 196.449 357.879 199.25C359.898 196.334 362.446 193.963 365.315 192.191ZM359.858 202.638C361.614 199.644 363.978 197.224 366.704 195.447C367.491 197.774 367.917 200.267 367.917 202.859C367.917 208.844 365.645 214.298 361.91 218.407C362.921 213.217 362.31 207.689 359.858 202.638ZM355.9 202.638C354.224 199.778 351.992 197.443 349.42 195.691C348.685 197.948 348.288 200.357 348.288 202.859C348.288 208.537 350.333 213.737 353.732 217.764C352.891 212.762 353.55 207.481 355.9 202.638ZM357.879 220.114C359.191 215.944 359.245 211.395 357.879 207.082C356.514 211.395 356.568 215.944 357.879 220.114ZM340.223 211.859C343.08 216.809 347.594 220.207 352.666 221.755C347.805 216.932 344.795 210.247 344.795 202.859C344.795 199.73 345.335 196.726 346.327 193.937C344.102 192.907 341.714 192.258 339.27 192.021C336.466 198.187 336.584 205.557 340.223 211.859Z" fill="#2B1105"/>
</g>
</svg>
